<svg width="432" height="86" viewBox="0 0 432 86" fill="none" xmlns="http://www.w3.org/2000/svg">
<circle cx="43" cy="43" r="43" fill="black"/>
<path d="M28.4658 57.5839L57.5844 28.4653M57.5844 28.4653L57.5844 57.5839M57.5844 28.4653L28.4658 28.4653" stroke="#FFF7EF" stroke-width="5" stroke-linecap="round" stroke-linejoin="round"/>
<path d="M134.921 23.1592C139.462 23.1592 142.986 24.3555 145.492 26.748C147.999 29.1406 149.39 31.8587 149.667 34.9023H144.931C144.394 32.5911 143.319 30.7601 141.708 29.4092C140.113 28.0583 137.867 27.3828 134.97 27.3828C131.438 27.3828 128.581 28.6279 126.4 31.1182C124.236 33.5921 123.153 37.3926 123.153 42.5195C123.153 46.7188 124.13 50.1286 126.083 52.749C128.052 55.3532 130.982 56.6553 134.872 56.6553C138.453 56.6553 141.179 55.2799 143.051 52.5293C144.044 51.0807 144.784 49.1764 145.272 46.8164H150.009C149.586 50.5924 148.186 53.7581 145.81 56.3135C142.961 59.3896 139.12 60.9277 134.286 60.9277C130.119 60.9277 126.62 59.6663 123.788 57.1436C120.061 53.807 118.197 48.6556 118.197 41.6895C118.197 36.3997 119.597 32.0622 122.396 28.6768C125.424 24.9984 129.599 23.1592 134.921 23.1592ZM171.42 23.1592C177.751 23.1592 182.439 25.1937 185.482 29.2627C187.859 32.4365 189.047 36.4974 189.047 41.4453C189.047 46.8001 187.688 51.2516 184.97 54.7998C181.78 58.9665 177.23 61.0498 171.322 61.0498C165.805 61.0498 161.467 59.2269 158.31 55.5811C155.494 52.0654 154.086 47.6221 154.086 42.251C154.086 37.4007 155.29 33.2503 157.699 29.7998C160.792 25.3727 165.365 23.1592 171.42 23.1592ZM171.908 56.7041C176.189 56.7041 179.281 55.1742 181.186 52.1143C183.106 49.0381 184.066 45.5062 184.066 41.5186C184.066 37.3031 182.96 33.9095 180.746 31.3379C178.549 28.7663 175.538 27.4805 171.713 27.4805C168.002 27.4805 164.975 28.7581 162.631 31.3135C160.287 33.8525 159.115 37.6042 159.115 42.5684C159.115 46.5397 160.116 49.8926 162.118 52.627C164.136 55.3451 167.4 56.7041 171.908 56.7041ZM195.321 24.1357H211.459C214.649 24.1357 217.221 25.0391 219.174 26.8457C221.127 28.6361 222.104 31.1589 222.104 34.4141C222.104 37.2135 221.233 39.6549 219.491 41.7383C217.75 43.8053 215.072 44.8389 211.459 44.8389H200.18V60H195.321V24.1357ZM217.196 34.4385C217.196 31.8018 216.22 30.0114 214.267 29.0674C213.192 28.5628 211.719 28.3105 209.848 28.3105H200.18V40.7373H209.848C212.029 40.7373 213.795 40.2734 215.146 39.3457C216.513 38.418 217.196 36.7822 217.196 34.4385ZM225.424 24.1357H231.088L241.391 41.3721L251.693 24.1357H257.382L243.832 45.5469V60H238.974V45.5469L225.424 24.1357ZM275.692 24.1357H280.6V60H275.692V24.1357ZM288.388 24.1357H295.346L305.648 54.458L315.878 24.1357H322.763V60H318.148V38.833C318.148 38.1006 318.165 36.888 318.197 35.1953C318.23 33.5026 318.246 31.6878 318.246 29.751L308.017 60H303.207L292.904 29.751V30.8496C292.904 31.7285 292.921 33.0713 292.953 34.8779C293.002 36.6683 293.026 37.9867 293.026 38.833V60H288.388V24.1357ZM348.568 45.3027L343.124 29.458L337.338 45.3027H348.568ZM340.585 24.1357H346.078L359.091 60H353.769L350.131 49.2578H335.946L332.064 60H327.084L340.585 24.1357ZM379.013 23.208C382.382 23.208 385.295 23.859 387.753 25.1611C391.317 27.0329 393.498 30.3125 394.296 35H389.486C388.9 32.3796 387.688 30.4753 385.849 29.2871C384.009 28.0827 381.69 27.4805 378.891 27.4805C375.57 27.4805 372.771 28.7256 370.492 31.2158C368.23 33.7061 367.099 37.417 367.099 42.3486C367.099 46.613 368.035 50.0879 369.906 52.7734C371.778 55.4427 374.83 56.7773 379.062 56.7773C382.3 56.7773 384.978 55.8415 387.094 53.9697C389.226 52.0817 390.316 49.0381 390.365 44.8389H379.135V40.8105H394.882V60H391.757L390.585 55.3857C388.941 57.1924 387.484 58.4456 386.215 59.1455C384.083 60.3499 381.373 60.9521 378.085 60.9521C373.837 60.9521 370.183 59.5768 367.123 56.8262C363.786 53.3757 362.118 48.6393 362.118 42.6172C362.118 36.6113 363.746 31.8343 367.001 28.2861C370.093 24.9007 374.097 23.208 379.013 23.208ZM402.89 24.1357H429.037V28.5303H407.626V39.4189H427.426V43.5693H407.626V55.7275H429.403V60H402.89V24.1357Z" fill="black"/>
</svg>
