<svg width="586" height="86" viewBox="0 0 586 86" fill="none" xmlns="http://www.w3.org/2000/svg">
<circle cx="43" cy="43" r="43" fill="black"/>
<path d="M43.0248 22.4347V63.6146M43.0248 63.6146L22.4348 43.0247M43.0248 63.6146L63.6147 43.0247" stroke="#FFF7EF" stroke-width="5" stroke-linecap="round" stroke-linejoin="round"/>
<path d="M133.578 53.8496C135.222 53.8496 136.573 53.6787 137.631 53.3369C139.519 52.7021 141.065 51.4814 142.27 49.6748C143.23 48.2262 143.922 46.3708 144.345 44.1084C144.589 42.7575 144.711 41.5042 144.711 40.3486C144.711 35.9053 143.824 32.4548 142.05 29.9971C140.292 27.5394 137.452 26.3105 133.529 26.3105H124.911V53.8496H133.578ZM120.028 22.1357H134.555C139.486 22.1357 143.311 23.8854 146.029 27.3848C148.454 30.5423 149.667 34.5869 149.667 39.5186C149.667 43.3271 148.951 46.7695 147.519 49.8457C144.996 55.2819 140.658 58 134.506 58H120.028V22.1357ZM171.42 21.1592C177.751 21.1592 182.439 23.1937 185.482 27.2627C187.859 30.4365 189.047 34.4974 189.047 39.4453C189.047 44.8001 187.688 49.2516 184.97 52.7998C181.78 56.9665 177.23 59.0498 171.322 59.0498C165.805 59.0498 161.467 57.2269 158.31 53.5811C155.494 50.0654 154.086 45.6221 154.086 40.251C154.086 35.4007 155.29 31.2503 157.699 27.7998C160.792 23.3727 165.365 21.1592 171.42 21.1592ZM171.908 54.7041C176.189 54.7041 179.281 53.1742 181.186 50.1143C183.106 47.0381 184.066 43.5062 184.066 39.5186C184.066 35.3031 182.96 31.9095 180.746 29.3379C178.549 26.7663 175.538 25.4805 171.713 25.4805C168.002 25.4805 164.975 26.7581 162.631 29.3135C160.287 31.8525 159.115 35.6042 159.115 40.5684C159.115 44.5397 160.116 47.8926 162.118 50.627C164.136 53.3451 167.4 54.7041 171.908 54.7041ZM197.226 22.1357L203.988 51.3105L212.094 22.1357H217.367L225.473 51.3105L232.235 22.1357H237.558L228.134 58H223.031L214.755 28.2637L206.43 58H201.327L191.952 22.1357H197.226ZM242.074 22.1357H247.812L265.927 51.1885V22.1357H270.541V58H265.097L246.713 28.9717V58H242.074V22.1357ZM278.207 22.1357H283.065V53.7275H301.229V58H278.207V22.1357ZM321.518 21.1592C327.849 21.1592 332.536 23.1937 335.58 27.2627C337.956 30.4365 339.145 34.4974 339.145 39.4453C339.145 44.8001 337.785 49.2516 335.067 52.7998C331.877 56.9665 327.328 59.0498 321.42 59.0498C315.902 59.0498 311.565 57.2269 308.407 53.5811C305.591 50.0654 304.184 45.6221 304.184 40.251C304.184 35.4007 305.388 31.2503 307.797 27.7998C310.889 23.3727 315.463 21.1592 321.518 21.1592ZM322.006 54.7041C326.286 54.7041 329.379 53.1742 331.283 50.1143C333.204 47.0381 334.164 43.5062 334.164 39.5186C334.164 35.3031 333.057 31.9095 330.844 29.3379C328.646 26.7663 325.635 25.4805 321.811 25.4805C318.1 25.4805 315.072 26.7581 312.729 29.3135C310.385 31.8525 309.213 35.6042 309.213 40.5684C309.213 44.5397 310.214 47.8926 312.216 50.627C314.234 53.3451 317.497 54.7041 322.006 54.7041ZM363.363 43.3027L357.919 27.458L352.133 43.3027H363.363ZM355.38 22.1357H360.873L373.886 58H368.563L364.926 47.2578H350.741L346.859 58H341.879L355.38 22.1357ZM392.074 53.8496C393.718 53.8496 395.069 53.6787 396.127 53.3369C398.015 52.7021 399.561 51.4814 400.766 49.6748C401.726 48.2262 402.418 46.3708 402.841 44.1084C403.085 42.7575 403.207 41.5042 403.207 40.3486C403.207 35.9053 402.32 32.4548 400.546 29.9971C398.788 27.5394 395.948 26.3105 392.025 26.3105H383.407V53.8496H392.074ZM378.524 22.1357H393.051C397.982 22.1357 401.807 23.8854 404.525 27.3848C406.951 30.5423 408.163 34.5869 408.163 39.5186C408.163 43.3271 407.447 46.7695 406.015 49.8457C403.492 55.2819 399.154 58 393.002 58H378.524V22.1357ZM429.452 22.1357H434.359V58H429.452V22.1357ZM442.147 22.1357H449.105L459.408 52.458L469.638 22.1357H476.522V58H471.908V36.833C471.908 36.1006 471.924 34.888 471.957 33.1953C471.99 31.5026 472.006 29.6878 472.006 27.751L461.776 58H456.967L446.664 27.751V28.8496C446.664 29.7285 446.68 31.0713 446.713 32.8779C446.762 34.6683 446.786 35.9867 446.786 36.833V58H442.147V22.1357ZM502.328 43.3027L496.884 27.458L491.098 43.3027H502.328ZM494.345 22.1357H499.838L512.851 58H507.528L503.891 47.2578H489.706L485.824 58H480.844L494.345 22.1357ZM532.772 21.208C536.142 21.208 539.055 21.859 541.513 23.1611C545.077 25.0329 547.258 28.3125 548.056 33H543.246C542.66 30.3796 541.448 28.4753 539.608 27.2871C537.769 26.0827 535.45 25.4805 532.65 25.4805C529.33 25.4805 526.531 26.7256 524.252 29.2158C521.99 31.7061 520.858 35.417 520.858 40.3486C520.858 44.613 521.794 48.0879 523.666 50.7734C525.538 53.4427 528.59 54.7773 532.821 54.7773C536.06 54.7773 538.738 53.8415 540.854 51.9697C542.986 50.0817 544.076 47.0381 544.125 42.8389H532.895V38.8105H548.642V58H545.517L544.345 53.3857C542.701 55.1924 541.244 56.4456 539.975 57.1455C537.842 58.3499 535.132 58.9521 531.845 58.9521C527.597 58.9521 523.943 57.5768 520.883 54.8262C517.546 51.3757 515.878 46.6393 515.878 40.6172C515.878 34.6113 517.506 29.8343 520.761 26.2861C523.853 22.9007 527.857 21.208 532.772 21.208ZM556.649 22.1357H582.797V26.5303H561.386V37.4189H581.186V41.5693H561.386V53.7275H583.163V58H556.649V22.1357Z" fill="black"/>
</svg>
