<svg width="560" height="86" viewBox="0 0 560 86" fill="none" xmlns="http://www.w3.org/2000/svg">
<circle cx="43" cy="43" r="43" fill="black"/>
<path d="M43.0253 22.4347V63.6146M43.0253 63.6146L22.4353 43.0247M43.0253 63.6146L63.6152 43.0247" stroke="#FFF7EF" stroke-width="5" stroke-linecap="round" stroke-linejoin="round"/>
<path d="M146.409 63.3144C148.885 63.3144 150.92 63.0619 152.514 62.5567C155.357 61.6186 157.686 59.8144 159.501 57.1443C160.947 55.0034 161.989 52.2612 162.626 48.9175C162.994 46.921 163.178 45.0687 163.178 43.3608C163.178 36.7938 161.842 31.6942 159.17 28.0619C156.522 24.4296 152.244 22.6134 146.336 22.6134H133.355V63.3144H146.409ZM126 16.4433H147.88C155.308 16.4433 161.07 19.0292 165.164 24.201C168.817 28.8677 170.643 34.8454 170.643 42.134C170.643 47.7629 169.564 52.8505 167.407 57.3969C163.607 65.4313 157.074 69.4485 147.807 69.4485H126V16.4433Z" fill="black"/>
<path d="M203.408 15C212.945 15 220.005 18.0069 224.59 24.0206C228.169 28.7113 229.958 34.7131 229.958 42.0258C229.958 49.9399 227.911 56.5189 223.817 61.7629C219.012 67.921 212.16 71 203.261 71C194.95 71 188.417 68.3058 183.661 62.9175C179.42 57.7217 177.299 51.1546 177.299 43.2165C177.299 36.0481 179.113 29.9141 182.741 24.8144C187.399 18.2715 194.288 15 203.408 15ZM204.144 64.5773C210.591 64.5773 215.249 62.3162 218.117 57.7938C221.01 53.2474 222.457 48.0275 222.457 42.134C222.457 35.9038 220.79 30.8883 217.456 27.0876C214.146 23.2869 209.611 21.3866 203.849 21.3866C198.26 21.3866 193.7 23.2749 190.17 27.0515C186.639 30.8041 184.874 36.3488 184.874 43.6856C184.874 49.555 186.382 54.5103 189.397 58.5515C192.437 62.5687 197.353 64.5773 204.144 64.5773Z" fill="black"/>
<path d="M242.278 16.4433L252.464 59.5619L264.673 16.4433H272.616L284.824 59.5619L295.011 16.4433H303.027L288.833 69.4485H281.147L268.681 25.5L256.141 69.4485H248.456L234.335 16.4433H242.278Z" fill="black"/>
<path d="M309.83 16.4433H318.472L345.758 59.3814V16.4433H352.708V69.4485H344.508L316.817 26.5464V69.4485H309.83V16.4433Z" fill="black"/>
<path d="M364.255 16.4433H371.573V63.134H398.932V69.4485H364.255V16.4433Z" fill="black"/>
<path d="M429.491 15C439.028 15 446.088 18.0069 450.673 24.0206C454.252 28.7113 456.042 34.7131 456.042 42.0258C456.042 49.9399 453.994 56.5189 449.9 61.7629C445.095 67.921 438.243 71 429.344 71C421.033 71 414.5 68.3058 409.744 62.9175C405.503 57.7217 403.382 51.1546 403.382 43.2165C403.382 36.0481 405.196 29.9141 408.824 24.8144C413.482 18.2715 420.371 15 429.491 15ZM430.227 64.5773C436.674 64.5773 441.332 62.3162 444.2 57.7938C447.093 53.2474 448.54 48.0275 448.54 42.134C448.54 35.9038 446.873 30.8883 443.539 27.0876C440.229 23.2869 435.694 21.3866 429.932 21.3866C424.343 21.3866 419.783 23.2749 416.253 27.0515C412.722 30.8041 410.957 36.3488 410.957 43.6856C410.957 49.555 412.465 54.5103 415.48 58.5515C418.52 62.5687 423.436 64.5773 430.227 64.5773Z" fill="black"/>
<path d="M492.521 47.7268L484.32 24.3093L475.605 47.7268H492.521ZM480.496 16.4433H488.77L508.37 69.4485H500.353L494.874 53.5722H473.509L467.662 69.4485H460.16L480.496 16.4433Z" fill="black"/>
<path d="M535.766 63.3144C538.242 63.3144 540.277 63.0619 541.871 62.5567C544.715 61.6186 547.043 59.8144 548.858 57.1443C550.304 55.0034 551.346 52.2612 551.983 48.9175C552.351 46.921 552.535 45.0687 552.535 43.3608C552.535 36.7938 551.199 31.6942 548.527 28.0619C545.879 24.4296 541.601 22.6134 535.693 22.6134H522.712V63.3144H535.766ZM515.357 16.4433H537.237C544.665 16.4433 550.427 19.0292 554.521 24.201C558.174 28.8677 560 34.8454 560 42.134C560 47.7629 558.921 52.8505 556.764 57.3969C552.964 65.4313 546.431 69.4485 537.164 69.4485H515.357V16.4433Z" fill="black"/>
</svg>
