<svg width="365" height="111" viewBox="0 0 365 111" fill="none" xmlns="http://www.w3.org/2000/svg">
<path d="M47.2428 60.9934V52.8061H90.8081V105.318H82.6042V87.9551C80.8126 90.9666 78.7381 93.7427 76.3806 96.2836C74.1175 98.7304 71.4772 100.848 68.4597 102.636C65.4422 104.33 61.9532 105.647 57.9927 106.588C54.0322 107.529 49.5531 108 44.5554 108C38.1432 108 32.2025 106.871 26.7332 104.612C21.264 102.354 16.5491 99.0127 12.5887 94.5897C8.62818 90.0726 5.51638 84.4261 3.25325 77.6504C1.08442 70.8747 0 62.9697 0 53.9354C0 46.5009 0.942971 39.584 2.82891 33.1847C4.71485 26.6913 7.59092 21.0919 11.4571 16.3865C15.4176 11.5871 20.321 7.82278 26.1674 5.09367C32.1082 2.36456 39.0861 1 47.1014 1C52.4763 1 57.4741 1.65875 62.0946 2.97625C66.8095 4.29375 71.0057 6.31706 74.6833 9.04617C78.4552 11.6812 81.6141 15.022 84.1601 19.0686C86.7062 23.0211 88.545 27.7265 89.6765 33.1847H79.7753C78.9267 29.4204 77.465 26.0325 75.3905 23.0211C73.4103 20.0097 71.0057 17.5158 68.1768 15.5396C65.3479 13.4692 62.1889 11.9164 58.6999 10.8813C55.2109 9.75198 51.5805 9.18733 47.8086 9.18733C41.1135 9.18733 35.3614 10.3637 30.5523 12.7164C25.7431 15.069 21.7826 18.4098 18.6708 22.7388C15.559 26.9736 13.2487 32.1025 11.74 38.1253C10.3255 44.0541 9.6183 50.5945 9.6183 57.7467C9.6183 63.3931 10.4198 68.7573 12.0229 73.8391C13.7202 78.9208 16.1248 83.3909 19.2366 87.2493C22.4427 91.1077 26.3089 94.1662 30.8351 96.4248C35.4557 98.6834 40.6892 99.8127 46.5356 99.8127C49.2702 99.8127 52.0991 99.5303 55.0223 98.9657C57.9456 98.3069 60.7745 97.2718 63.5091 95.8602C66.2437 94.4485 68.7897 92.6135 71.1472 90.3549C73.5046 88.0963 75.532 85.3201 77.2293 82.0264C78.8324 78.8267 79.9168 75.4859 80.4826 72.004C81.1426 68.522 81.5198 64.8518 81.6141 60.9934H47.2428Z" fill="black"/>
<path d="M110.09 54.6412C110.09 47.2067 111.08 40.2427 113.06 33.7493C115.135 27.2559 118.152 21.6095 122.113 16.81C126.073 11.9164 130.977 8.05805 136.823 5.23482C142.67 2.41161 149.412 1 157.05 1C164.971 1 171.902 2.41161 177.842 5.23482C183.877 7.96394 188.875 11.7753 192.836 16.6689C196.89 21.4683 199.908 27.1618 201.888 33.7493C203.963 40.2427 205 47.2067 205 54.6412C205 61.9815 203.963 68.8984 201.888 75.3918C199.908 81.7911 196.938 87.4376 192.977 92.3311C189.017 97.1306 184.066 100.942 178.125 103.765C172.185 106.588 165.301 108 157.474 108C149.648 108 142.764 106.588 136.823 103.765C130.883 100.942 125.932 97.1306 121.971 92.3311C118.011 87.4376 115.041 81.7911 113.06 75.3918C111.08 68.8984 110.09 61.9815 110.09 54.6412ZM157.616 99.8127C164.217 99.8127 169.874 98.5893 174.589 96.1425C179.398 93.6016 183.312 90.2608 186.329 86.12C189.441 81.9793 191.704 77.1799 193.119 71.7216C194.627 66.2634 195.382 60.5699 195.382 54.6412C195.382 47.5831 194.486 41.2779 192.694 35.7256C190.997 30.0792 188.498 25.2797 185.198 21.3272C181.897 17.3747 177.89 14.3632 173.175 12.2929C168.46 10.2225 163.179 9.18733 157.333 9.18733C150.826 9.18733 145.169 10.4578 140.359 12.9987C135.645 15.5396 131.731 18.9274 128.619 23.1623C125.602 27.303 123.339 32.1025 121.83 37.5607C120.416 43.0189 119.708 48.7124 119.708 54.6412C119.708 60.664 120.416 66.4046 121.83 71.8628C123.339 77.321 125.602 82.1205 128.619 86.2612C131.731 90.4019 135.645 93.6957 140.359 96.1425C145.169 98.5893 150.921 99.8127 157.616 99.8127Z" fill="black"/>
<path d="M257 108L362 3M362 3V108M362 3H257" stroke="black" stroke-width="5" stroke-linecap="round" stroke-linejoin="round"/>
</svg>
