<svg width="151" height="49" viewBox="0 0 151 49" fill="none" xmlns="http://www.w3.org/2000/svg">
<rect x="0.5" y="0.5" width="150" height="48" rx="19.5" stroke="black"/>
<path d="M38.5273 34.4727C37.3359 35.2051 35.8711 35.5713 34.1328 35.5713C31.2715 35.5713 28.9277 34.5801 27.1016 32.5977C25.1973 30.6055 24.2451 27.8809 24.2451 24.4238C24.2451 20.9277 25.207 18.125 27.1309 16.0156C29.0547 13.9062 31.5986 12.8516 34.7627 12.8516C37.5068 12.8516 39.709 13.5498 41.3691 14.9463C43.0391 16.333 43.9961 18.0664 44.2402 20.1465H39.8018C39.46 18.6719 38.625 17.6416 37.2969 17.0557C36.5547 16.7334 35.7295 16.5723 34.8213 16.5723C33.083 16.5723 31.6523 17.2314 30.5293 18.5498C29.416 19.8584 28.8594 21.8311 28.8594 24.4678C28.8594 27.124 29.4648 29.0039 30.6758 30.1074C31.8867 31.2109 33.2637 31.7627 34.8066 31.7627C36.3203 31.7627 37.5605 31.3281 38.5273 30.459C39.4941 29.5801 40.0898 28.4326 40.3145 27.0166H35.3193V23.4131H44.3135V35H41.3252L40.8711 32.3047C40.002 33.3301 39.2207 34.0527 38.5273 34.4727ZM61.4082 26.6797V13.4082H65.9932V26.6797C65.9932 28.9746 65.6367 30.7617 64.9238 32.041C63.5957 34.3848 61.0615 35.5566 57.3213 35.5566C53.5811 35.5566 51.042 34.3848 49.7041 32.041C48.9912 30.7617 48.6348 28.9746 48.6348 26.6797V13.4082H53.2197V26.6797C53.2197 28.1641 53.3955 29.248 53.7471 29.9316C54.2939 31.1426 55.4854 31.748 57.3213 31.748C59.1475 31.748 60.334 31.1426 60.8809 29.9316C61.2324 29.248 61.4082 28.1641 61.4082 26.6797ZM85.3438 25.5664H74.8555V31.1182H86.8086V35H70.4463V13.4082H86.2812V17.2314H74.8555V21.8164H85.3438V25.5664ZM98.1611 31.8799C99.2256 31.8799 100.09 31.7627 100.754 31.5283C102.014 31.0791 102.644 30.2441 102.644 29.0234C102.644 28.3105 102.331 27.7588 101.706 27.3682C101.081 26.9873 100.1 26.6504 98.7617 26.3574L96.4766 25.8447C94.2305 25.3369 92.6777 24.7852 91.8184 24.1895C90.3633 23.1934 89.6357 21.6357 89.6357 19.5166C89.6357 17.583 90.3389 15.9766 91.7451 14.6973C93.1514 13.418 95.2168 12.7783 97.9414 12.7783C100.217 12.7783 102.155 13.3838 103.757 14.5947C105.368 15.7959 106.213 17.5439 106.291 19.8389H101.955C101.877 18.54 101.311 17.6172 100.256 17.0703C99.5527 16.709 98.6787 16.5283 97.6338 16.5283C96.4717 16.5283 95.5439 16.7627 94.8506 17.2314C94.1572 17.7002 93.8105 18.3545 93.8105 19.1943C93.8105 19.9658 94.1523 20.542 94.8359 20.9229C95.2754 21.1768 96.2129 21.4746 97.6484 21.8164L101.369 22.71C103 23.1006 104.23 23.623 105.061 24.2773C106.35 25.293 106.994 26.7627 106.994 28.6865C106.994 30.6592 106.237 32.2998 104.724 33.6084C103.22 34.9072 101.091 35.5566 98.3369 35.5566C95.5244 35.5566 93.3125 34.917 91.7012 33.6377C90.0898 32.3486 89.2842 30.5811 89.2842 28.335H93.5908C93.7275 29.3213 93.9961 30.0586 94.3965 30.5469C95.1289 31.4355 96.3838 31.8799 98.1611 31.8799ZM118.171 31.8799C119.235 31.8799 120.1 31.7627 120.764 31.5283C122.023 31.0791 122.653 30.2441 122.653 29.0234C122.653 28.3105 122.341 27.7588 121.716 27.3682C121.091 26.9873 120.109 26.6504 118.771 26.3574L116.486 25.8447C114.24 25.3369 112.688 24.7852 111.828 24.1895C110.373 23.1934 109.646 21.6357 109.646 19.5166C109.646 17.583 110.349 15.9766 111.755 14.6973C113.161 13.418 115.227 12.7783 117.951 12.7783C120.227 12.7783 122.165 13.3838 123.767 14.5947C125.378 15.7959 126.223 17.5439 126.301 19.8389H121.965C121.887 18.54 121.32 17.6172 120.266 17.0703C119.562 16.709 118.688 16.5283 117.644 16.5283C116.481 16.5283 115.554 16.7627 114.86 17.2314C114.167 17.7002 113.82 18.3545 113.82 19.1943C113.82 19.9658 114.162 20.542 114.846 20.9229C115.285 21.1768 116.223 21.4746 117.658 21.8164L121.379 22.71C123.01 23.1006 124.24 23.623 125.07 24.2773C126.359 25.293 127.004 26.7627 127.004 28.6865C127.004 30.6592 126.247 32.2998 124.733 33.6084C123.229 34.9072 121.101 35.5566 118.347 35.5566C115.534 35.5566 113.322 34.917 111.711 33.6377C110.1 32.3486 109.294 30.5811 109.294 28.335H113.601C113.737 29.3213 114.006 30.0586 114.406 30.5469C115.139 31.4355 116.394 31.8799 118.171 31.8799Z" fill="black"/>
</svg>
