<svg width="89" height="89" viewBox="0 0 89 89" fill="none" xmlns="http://www.w3.org/2000/svg">
<mask id="path-1-outside-1_379_288" maskUnits="userSpaceOnUse" x="0" y="0" width="89" height="89" fill="black">
<rect fill="white" width="89" height="89"/>
<path d="M88 44.5C88 68.5244 68.5244 88 44.5 88C20.4756 88 1 68.5244 1 44.5C1 20.4756 20.4756 1 44.5 1C68.5244 1 88 20.4756 88 44.5Z"/>
<path d="M46.2824 35.3756V31.0468H42.2507V35.3756H46.2824ZM46.0702 60.4146V39.1951H42.4629V60.4146H46.0702Z"/>
</mask>
<path d="M46.2824 35.3756V31.0468H42.2507V35.3756H46.2824ZM46.0702 60.4146V39.1951H42.4629V60.4146H46.0702Z" fill="black"/>
<path d="M46.2824 35.3756V36.3756H47.2824V35.3756H46.2824ZM46.2824 31.0468H47.2824V30.0468H46.2824V31.0468ZM42.2507 31.0468V30.0468H41.2507V31.0468H42.2507ZM42.2507 35.3756H41.2507V36.3756H42.2507V35.3756ZM46.0702 60.4146V61.4146H47.0702V60.4146H46.0702ZM46.0702 39.1951H47.0702V38.1951H46.0702V39.1951ZM42.4629 39.1951V38.1951H41.4629V39.1951H42.4629ZM42.4629 60.4146H41.4629V61.4146H42.4629V60.4146ZM87 44.5C87 67.9721 67.9721 87 44.5 87V89C69.0767 89 89 69.0767 89 44.5H87ZM44.5 87C21.0279 87 2 67.9721 2 44.5H0C0 69.0767 19.9233 89 44.5 89V87ZM2 44.5C2 21.0279 21.0279 2 44.5 2V0C19.9233 0 0 19.9233 0 44.5H2ZM44.5 2C67.9721 2 87 21.0279 87 44.5H89C89 19.9233 69.0767 0 44.5 0V2ZM47.2824 35.3756V31.0468H45.2824V35.3756H47.2824ZM46.2824 30.0468H42.2507V32.0468H46.2824V30.0468ZM41.2507 31.0468V35.3756H43.2507V31.0468H41.2507ZM42.2507 36.3756H46.2824V34.3756H42.2507V36.3756ZM47.0702 60.4146V39.1951H45.0702V60.4146H47.0702ZM46.0702 38.1951H42.4629V40.1951H46.0702V38.1951ZM41.4629 39.1951V60.4146H43.4629V39.1951H41.4629ZM42.4629 61.4146H46.0702V59.4146H42.4629V61.4146Z" fill="black" mask="url(#path-1-outside-1_379_288)"/>
</svg>
