<svg width="172" height="63" viewBox="0 0 172 63" fill="none" xmlns="http://www.w3.org/2000/svg">
<path d="M16 40V23H27L38 12V51L27 40H16Z" fill="black" stroke="black"/>
<circle cx="31.5" cy="31.5" r="30" stroke="black" stroke-width="3"/>
<line x1="54.0607" y1="11.0607" x2="10.0607" y2="55.0607" stroke="black" stroke-width="3"/>
<path d="M82.709 23.6543H89.1641C90.4401 23.6543 91.4688 24.0156 92.25 24.7383C93.0312 25.4544 93.4219 26.4635 93.4219 27.7656C93.4219 28.8854 93.0736 29.862 92.377 30.6953C91.6803 31.5221 90.6094 31.9355 89.1641 31.9355H84.6523V38H82.709V23.6543ZM91.459 27.7754C91.459 26.7207 91.0684 26.0046 90.2871 25.627C89.8574 25.4251 89.2682 25.3242 88.5195 25.3242H84.6523V30.2949H88.5195C89.3919 30.2949 90.0983 30.1094 90.6387 29.7383C91.1855 29.3672 91.459 28.7129 91.459 27.7754ZM95.8633 23.6543H97.8066V36.291H105.072V38H95.8633V23.6543ZM114.359 32.1211L112.182 25.7832L109.867 32.1211H114.359ZM111.166 23.6543H113.363L118.568 38H116.439L114.984 33.7031H109.311L107.758 38H105.766L111.166 23.6543ZM117.738 23.6543H120.004L124.125 30.5488L128.246 23.6543H130.521L125.102 32.2188V38H123.158V32.2188L117.738 23.6543ZM137.357 23.6543H140.141L144.262 35.7832L148.354 23.6543H151.107V38H149.262V29.5332C149.262 29.2402 149.268 28.7552 149.281 28.0781C149.294 27.401 149.301 26.6751 149.301 25.9004L145.209 38H143.285L139.164 25.9004V26.3398C139.164 26.6914 139.171 27.2285 139.184 27.9512C139.203 28.6673 139.213 29.1947 139.213 29.5332V38H137.357V23.6543ZM154.252 23.6543H164.711V25.4121H156.146V29.7676H164.066V31.4277H156.146V36.291H164.857V38H154.252V23.6543ZM168.197 23.6543H170.18V28.3711L169.701 34.582H168.705L168.197 28.3711V23.6543ZM168.197 35.9688H170.141V38H168.197V35.9688Z" fill="black"/>
</svg>
