<svg width="151" height="49" viewBox="0 0 151 49" fill="none" xmlns="http://www.w3.org/2000/svg">
<rect x="0.5" y="0.5" width="150" height="48" rx="19.5" stroke="black"/>
<path d="M55.2637 35.1172C54.2969 35.4395 53.1396 35.6006 51.792 35.6006C48.9795 35.6006 46.6553 34.7607 44.8193 33.0811C42.5928 31.0596 41.4795 28.0908 41.4795 24.1748C41.4795 20.2295 42.6221 17.2461 44.9072 15.2246C46.7725 13.5742 49.0918 12.749 51.8652 12.749C54.6582 12.749 57.002 13.623 58.8965 15.3711C61.084 17.3926 62.1777 20.2197 62.1777 23.8525C62.1777 25.7764 61.9434 27.3877 61.4746 28.6865C61.0938 29.9268 60.5322 30.957 59.79 31.7773L62.2803 34.1064L59.9219 36.5674L57.3145 34.1064C56.5234 34.585 55.8398 34.9219 55.2637 35.1172ZM54.2969 31.2207L52.1143 29.1406L54.4434 26.709L56.626 28.7891C56.9678 28.0859 57.207 27.4707 57.3438 26.9434C57.5586 26.1523 57.666 25.2295 57.666 24.1748C57.666 21.7529 57.168 19.8828 56.1719 18.5645C55.1855 17.2363 53.7402 16.5723 51.8359 16.5723C50.0488 16.5723 48.623 17.207 47.5586 18.4766C46.4941 19.7461 45.9619 21.6455 45.9619 24.1748C45.9619 27.1338 46.7236 29.2529 48.2471 30.5322C49.2334 31.3623 50.415 31.7773 51.792 31.7773C52.3096 31.7773 52.8076 31.7139 53.2861 31.5869C53.5498 31.5186 53.8867 31.3965 54.2969 31.2207ZM78.4082 26.6797V13.4082H82.9932V26.6797C82.9932 28.9746 82.6367 30.7617 81.9238 32.041C80.5957 34.3848 78.0615 35.5566 74.3213 35.5566C70.5811 35.5566 68.042 34.3848 66.7041 32.041C65.9912 30.7617 65.6348 28.9746 65.6348 26.6797V13.4082H70.2197V26.6797C70.2197 28.1641 70.3955 29.248 70.7471 29.9316C71.2939 31.1426 72.4854 31.748 74.3213 31.748C76.1475 31.748 77.334 31.1426 77.8809 29.9316C78.2324 29.248 78.4082 28.1641 78.4082 26.6797ZM86.9629 13.4082H91.4453V35H86.9629V13.4082ZM110.942 35H94.1406V31.1914L105.288 17.2314H94.4189V13.4082H110.913V17.0264L99.6191 31.1914H110.942V35Z" fill="black"/>
</svg>
