<svg width="151" height="49" viewBox="0 0 151 49" fill="none" xmlns="http://www.w3.org/2000/svg">
<rect x="0.5" y="0.5" width="150" height="48" rx="19.5" stroke="black"/>
<path d="M33.1221 31.8799C34.1865 31.8799 35.0508 31.7627 35.7148 31.5283C36.9746 31.0791 37.6045 30.2441 37.6045 29.0234C37.6045 28.3105 37.292 27.7588 36.667 27.3682C36.042 26.9873 35.0605 26.6504 33.7227 26.3574L31.4375 25.8447C29.1914 25.3369 27.6387 24.7852 26.7793 24.1895C25.3242 23.1934 24.5967 21.6357 24.5967 19.5166C24.5967 17.583 25.2998 15.9766 26.7061 14.6973C28.1123 13.418 30.1777 12.7783 32.9023 12.7783C35.1777 12.7783 37.1162 13.3838 38.7178 14.5947C40.3291 15.7959 41.1738 17.5439 41.252 19.8389H36.916C36.8379 18.54 36.2715 17.6172 35.2168 17.0703C34.5137 16.709 33.6396 16.5283 32.5947 16.5283C31.4326 16.5283 30.5049 16.7627 29.8115 17.2314C29.1182 17.7002 28.7715 18.3545 28.7715 19.1943C28.7715 19.9658 29.1133 20.542 29.7969 20.9229C30.2363 21.1768 31.1738 21.4746 32.6094 21.8164L36.3301 22.71C37.9609 23.1006 39.1914 23.623 40.0215 24.2773C41.3105 25.293 41.9551 26.7627 41.9551 28.6865C41.9551 30.6592 41.1982 32.2998 39.6846 33.6084C38.1807 34.9072 36.0518 35.5566 33.2979 35.5566C30.4854 35.5566 28.2734 34.917 26.6621 33.6377C25.0508 32.3486 24.2451 30.5811 24.2451 28.335H28.5518C28.6885 29.3213 28.957 30.0586 29.3574 30.5469C30.0898 31.4355 31.3447 31.8799 33.1221 31.8799ZM58.1709 35V25.3613H49.7334V35H45.2656V13.4082H49.7334V21.6406H58.1709V13.4082H62.6533V35H58.1709ZM79.6162 30.5615H71.6621L70.168 35H65.4512L73.1562 13.4082H78.2539L85.9004 35H81.0078L79.6162 30.5615ZM78.3564 26.8408L75.6611 18.3447L72.8779 26.8408H78.3564ZM97.8242 26.5332H93.166V35H88.7568V13.4082H99.3477C100.861 13.4375 102.023 13.623 102.834 13.9648C103.654 14.3066 104.348 14.8096 104.914 15.4736C105.383 16.0205 105.754 16.626 106.027 17.29C106.301 17.9541 106.438 18.7109 106.438 19.5605C106.438 20.5859 106.179 21.5967 105.661 22.5928C105.144 23.5791 104.289 24.2773 103.098 24.6875C104.094 25.0879 104.797 25.6592 105.207 26.4014C105.627 27.1338 105.837 28.2568 105.837 29.7705V31.2207C105.837 32.207 105.876 32.876 105.954 33.2275C106.071 33.7842 106.345 34.1943 106.774 34.458V35H101.809C101.672 34.5215 101.574 34.1357 101.516 33.8428C101.398 33.2373 101.335 32.6172 101.325 31.9824L101.296 29.9756C101.276 28.5986 101.022 27.6807 100.534 27.2217C100.056 26.7627 99.1523 26.5332 97.8242 26.5332ZM100.563 22.6074C101.462 22.1973 101.911 21.3867 101.911 20.1758C101.911 18.8672 101.477 17.9883 100.607 17.5391C100.119 17.2852 99.3867 17.1582 98.4102 17.1582H93.166V22.959H98.2783C99.2939 22.959 100.056 22.8418 100.563 22.6074ZM125.363 25.5664H114.875V31.1182H126.828V35H110.466V13.4082H126.301V17.2314H114.875V21.8164H125.363V25.5664Z" fill="black"/>
</svg>
